<svg width="433" height="600" viewBox="0 0 433 600" fill="none" xmlns="http://www.w3.org/2000/svg">
<path d="M57.4089 527.15L64.8989 547.205L72.3539 527.15H76.5189L66.7539 552H63.0439L53.2439 527.15H57.4089ZM96.7746 548.535V552H79.7296V527.15H96.4596V530.615H83.6496V537.685H94.7446V540.94H83.6496V548.535H96.7746ZM100.993 552V527.15H111.808C112.928 527.15 113.955 527.383 114.888 527.85C115.822 528.317 116.627 528.935 117.303 529.705C118.003 530.475 118.54 531.338 118.913 532.295C119.31 533.252 119.508 534.232 119.508 535.235C119.508 536.332 119.31 537.382 118.913 538.385C118.517 539.388 117.945 540.252 117.198 540.975C116.475 541.698 115.623 542.223 114.643 542.55L120.488 552H116.078L110.688 543.355H104.913V552H100.993ZM104.913 539.89H111.773C112.497 539.89 113.138 539.68 113.698 539.26C114.258 538.84 114.702 538.28 115.028 537.58C115.355 536.857 115.518 536.075 115.518 535.235C115.518 534.372 115.332 533.602 114.958 532.925C114.585 532.225 114.095 531.665 113.488 531.245C112.905 530.825 112.263 530.615 111.563 530.615H104.913V539.89ZM124.308 552V527.185H128.228V539.96L139.918 527.15H144.258L134.458 538.14L144.818 552H140.373L131.973 540.625L128.228 544.51V552H124.308ZM167.994 527.15V552H164.039V541.045H151.509V552H147.589V527.15H151.509V537.545H164.039V527.15H167.994ZM184.099 552.175C182.303 552.175 180.681 551.825 179.234 551.125C177.788 550.425 176.539 549.48 175.489 548.29C174.439 547.077 173.623 545.723 173.039 544.23C172.479 542.713 172.199 541.162 172.199 539.575C172.199 537.918 172.503 536.343 173.109 534.85C173.716 533.333 174.556 531.992 175.629 530.825C176.703 529.635 177.963 528.702 179.409 528.025C180.879 527.325 182.466 526.975 184.169 526.975C185.943 526.975 187.553 527.337 188.999 528.06C190.469 528.783 191.718 529.752 192.744 530.965C193.794 532.178 194.599 533.532 195.159 535.025C195.743 536.518 196.034 538.047 196.034 539.61C196.034 541.267 195.731 542.853 195.124 544.37C194.541 545.863 193.713 547.205 192.639 548.395C191.566 549.562 190.294 550.483 188.824 551.16C187.378 551.837 185.803 552.175 184.099 552.175ZM176.189 539.575C176.189 540.742 176.376 541.873 176.749 542.97C177.123 544.067 177.648 545.047 178.324 545.91C179.024 546.75 179.864 547.415 180.844 547.905C181.824 548.395 182.921 548.64 184.134 548.64C185.394 548.64 186.514 548.383 187.494 547.87C188.474 547.357 189.291 546.668 189.944 545.805C190.621 544.918 191.134 543.938 191.484 542.865C191.834 541.768 192.009 540.672 192.009 539.575C192.009 538.408 191.823 537.288 191.449 536.215C191.099 535.118 190.574 534.15 189.874 533.31C189.174 532.447 188.334 531.77 187.354 531.28C186.398 530.79 185.324 530.545 184.134 530.545C182.874 530.545 181.754 530.802 180.774 531.315C179.794 531.828 178.966 532.517 178.289 533.38C177.613 534.243 177.088 535.212 176.714 536.285C176.364 537.358 176.189 538.455 176.189 539.575ZM200.886 527.15L208.376 547.205L215.831 527.15H219.996L210.231 552H206.521L196.721 527.15H200.886ZM227.126 534.43V552H223.206V527.15H226.426L240.496 545.105V527.185H244.451V552H241.021L227.126 534.43ZM257.387 527.15H261.097L270.757 552H266.627L264.002 545.245H254.412L251.822 552H247.657L257.387 527.15ZM263.232 542.34L259.242 531.455L255.112 542.34H263.232ZM281.734 552V527.15H292.549C293.669 527.15 294.696 527.383 295.629 527.85C296.563 528.317 297.368 528.935 298.044 529.705C298.744 530.475 299.281 531.338 299.654 532.295C300.051 533.252 300.249 534.232 300.249 535.235C300.249 536.332 300.051 537.382 299.654 538.385C299.258 539.388 298.686 540.252 297.939 540.975C297.216 541.698 296.364 542.223 295.384 542.55L301.229 552H296.819L291.429 543.355H285.654V552H281.734ZM285.654 539.89H292.514C293.238 539.89 293.879 539.68 294.439 539.26C294.999 538.84 295.443 538.28 295.769 537.58C296.096 536.857 296.259 536.075 296.259 535.235C296.259 534.372 296.073 533.602 295.699 532.925C295.326 532.225 294.836 531.665 294.229 531.245C293.646 530.825 293.004 530.615 292.304 530.615H285.654V539.89ZM312.224 527.15H315.934L325.594 552H321.464L318.839 545.245H309.249L306.659 552H302.494L312.224 527.15ZM318.069 542.34L314.079 531.455L309.949 542.34H318.069ZM328.842 552V527.15H337.662C340.345 527.15 342.585 527.71 344.382 528.83C346.179 529.927 347.52 531.42 348.407 533.31C349.317 535.177 349.772 537.253 349.772 539.54C349.772 542.06 349.27 544.253 348.267 546.12C347.287 547.987 345.887 549.433 344.067 550.46C342.247 551.487 340.112 552 337.662 552H328.842ZM345.782 539.54C345.782 537.79 345.455 536.25 344.802 534.92C344.172 533.567 343.25 532.517 342.037 531.77C340.847 531 339.389 530.615 337.662 530.615H332.762V548.535H337.662C339.412 548.535 340.882 548.138 342.072 547.345C343.285 546.552 344.207 545.478 344.837 544.125C345.467 542.772 345.782 541.243 345.782 539.54ZM360.323 527.15H364.033L373.693 552H369.563L366.938 545.245H357.348L354.758 552H350.593L360.323 527.15ZM366.168 542.34L362.178 531.455L358.048 542.34H366.168ZM121.829 592.175C120.032 592.175 118.41 591.825 116.964 591.125C115.517 590.425 114.269 589.48 113.219 588.29C112.169 587.077 111.352 585.723 110.769 584.23C110.209 582.713 109.929 581.162 109.929 579.575C109.929 577.918 110.232 576.343 110.839 574.85C111.445 573.333 112.285 571.992 113.359 570.825C114.432 569.635 115.692 568.702 117.139 568.025C118.609 567.325 120.195 566.975 121.899 566.975C123.672 566.975 125.282 567.337 126.729 568.06C128.199 568.783 129.447 569.752 130.474 570.965C131.524 572.178 132.329 573.532 132.889 575.025C133.472 576.518 133.764 578.047 133.764 579.61C133.764 581.267 133.46 582.853 132.854 584.37C132.27 585.863 131.442 587.205 130.369 588.395C129.295 589.562 128.024 590.483 126.554 591.16C125.107 591.837 123.532 592.175 121.829 592.175ZM113.919 579.575C113.919 580.742 114.105 581.873 114.479 582.97C114.852 584.067 115.377 585.047 116.054 585.91C116.754 586.75 117.594 587.415 118.574 587.905C119.554 588.395 120.65 588.64 121.864 588.64C123.124 588.64 124.244 588.383 125.224 587.87C126.204 587.357 127.02 586.668 127.674 585.805C128.35 584.918 128.864 583.938 129.214 582.865C129.564 581.768 129.739 580.672 129.739 579.575C129.739 578.408 129.552 577.288 129.179 576.215C128.829 575.118 128.304 574.15 127.604 573.31C126.904 572.447 126.064 571.77 125.084 571.28C124.127 570.79 123.054 570.545 121.864 570.545C120.604 570.545 119.484 570.802 118.504 571.315C117.524 571.828 116.695 572.517 116.019 573.38C115.342 574.243 114.817 575.212 114.444 576.285C114.094 577.358 113.919 578.455 113.919 579.575ZM137.997 592V567.15H154.552V570.615H141.917V578.035H152.487V581.29H141.917V592H137.997ZM176.769 592.175C174.785 592.175 173.105 591.837 171.729 591.16C170.375 590.483 169.279 589.562 168.439 588.395C167.622 587.228 167.015 585.898 166.619 584.405C166.245 582.912 166.059 581.36 166.059 579.75V567.15H169.979V579.75C169.979 580.893 170.095 582.002 170.329 583.075C170.562 584.125 170.935 585.07 171.449 585.91C171.962 586.75 172.65 587.415 173.514 587.905C174.4 588.395 175.485 588.64 176.769 588.64C178.075 588.64 179.16 588.395 180.024 587.905C180.91 587.392 181.599 586.715 182.089 585.875C182.602 585.012 182.975 584.055 183.209 583.005C183.442 581.955 183.559 580.87 183.559 579.75V567.15H187.514V579.75C187.514 581.453 187.304 583.063 186.884 584.58C186.487 586.073 185.857 587.392 184.994 588.535C184.154 589.655 183.057 590.542 181.704 591.195C180.35 591.848 178.705 592.175 176.769 592.175ZM192.902 592V567.185H196.822V579.96L208.512 567.15H212.852L203.052 578.14L213.412 592H208.967L200.567 580.625L196.822 584.51V592H192.902ZM216.182 592V567.15H226.997C228.117 567.15 229.144 567.383 230.077 567.85C231.011 568.317 231.816 568.935 232.492 569.705C233.192 570.475 233.729 571.338 234.102 572.295C234.499 573.252 234.697 574.232 234.697 575.235C234.697 576.332 234.499 577.382 234.102 578.385C233.706 579.388 233.134 580.252 232.387 580.975C231.664 581.698 230.812 582.223 229.832 582.55L235.677 592H231.267L225.877 583.355H220.102V592H216.182ZM220.102 579.89H226.962C227.686 579.89 228.327 579.68 228.887 579.26C229.447 578.84 229.891 578.28 230.217 577.58C230.544 576.857 230.707 576.075 230.707 575.235C230.707 574.372 230.521 573.602 230.147 572.925C229.774 572.225 229.284 571.665 228.677 571.245C228.094 570.825 227.452 570.615 226.752 570.615H220.102V579.89ZM246.672 567.15H250.382L260.042 592H255.912L253.287 585.245H243.697L241.107 592H236.942L246.672 567.15ZM252.517 582.34L248.527 571.455L244.397 582.34H252.517ZM263.29 592V567.15H267.21V592H263.29ZM276.921 574.43V592H273.001V567.15H276.221L290.291 585.105V567.185H294.246V592H290.816L276.921 574.43ZM317.052 588.535V592H300.007V567.15H316.737V570.615H303.927V577.685H315.022V580.94H303.927V588.535H317.052Z" fill="#131EB7"/>
<path d="M11.7753 475V364.24H60.7593C65.8553 364.24 70.5353 365.28 74.7993 367.36C79.1673 369.44 82.9113 372.248 86.0313 375.784C89.2553 379.32 91.6993 383.272 93.3633 387.64C95.1313 392.008 96.0153 396.48 96.0153 401.056C96.0153 405.736 95.1833 410.26 93.5193 414.628C91.9593 418.892 89.6713 422.636 86.6553 425.86C83.6393 429.084 80.1033 431.58 76.0473 433.348L101.319 475H77.6073L54.8313 437.872H33.3033V475H11.7753ZM33.3033 418.996H60.2913C62.9953 418.996 65.3873 418.216 67.4673 416.656C69.5473 414.992 71.2113 412.808 72.4593 410.104C73.7073 407.4 74.3313 404.384 74.3313 401.056C74.3313 397.52 73.6033 394.452 72.1473 391.852C70.6913 389.148 68.8193 387.016 66.5313 385.456C64.3473 383.896 61.9553 383.116 59.3553 383.116H33.3033V418.996ZM149.217 364.24H171.057L211.773 475H189.621L179.325 447.388H140.637L130.497 475H108.345L149.217 364.24ZM175.425 432.256L160.137 386.548L144.225 432.256H175.425ZM227.51 475V364.24H267.758C279.822 364.24 289.91 366.736 298.022 371.728C306.134 376.616 312.218 383.272 316.274 391.696C320.33 400.016 322.358 409.272 322.358 419.464C322.358 430.696 320.122 440.472 315.65 448.792C311.178 457.112 304.834 463.56 296.618 468.136C288.506 472.712 278.886 475 267.758 475H227.51ZM300.674 419.464C300.674 412.288 299.374 405.996 296.774 400.588C294.174 395.076 290.43 390.812 285.542 387.796C280.654 384.676 274.726 383.116 267.758 383.116H249.038V456.124H267.758C274.83 456.124 280.81 454.564 285.698 451.444C290.586 448.22 294.278 443.852 296.774 438.34C299.374 432.724 300.674 426.432 300.674 419.464ZM368.608 364.24H390.448L431.164 475H409.012L398.716 447.388H360.028L349.888 475H327.736L368.608 364.24ZM394.816 432.256L379.528 386.548L363.616 432.256H394.816Z" fill="#131EB7"/>
<g clip-path="url(#clip0_16_36)">
<path d="M215.228 0.815918C207.603 9.44836 202.955 20.7407 202.955 33.1427C203.405 60.37 206.752 87.5646 207.046 114.735C207.652 140.11 200.026 163.935 190.748 187.188C187.655 193.61 184.317 199.892 180.971 206.191L171.153 204.217C162.292 202.454 156.532 193.863 158.307 185.026C159.854 177.3 166.677 171.89 174.286 171.89L177.87 172.273L169.876 105.694C167.266 76.0764 151.934 50.0486 129.376 33.159C125.498 30.2543 121.383 27.5944 117.104 25.2527V261.625H171.824C175.915 283.736 188.138 303.074 205.32 316.292C209.403 319.098 212.831 322.803 215.294 327.127C217.748 322.803 221.176 319.098 225.267 316.292C242.449 303.041 254.673 283.745 258.764 261.625H313.484V25.2527C309.205 27.5944 305.089 30.2543 301.211 33.159C278.629 50.073 263.329 76.0764 260.711 105.694L252.717 172.273L256.301 171.89C263.91 171.923 270.734 177.291 272.28 185.026C274.047 193.863 268.287 202.446 259.435 204.217L249.616 206.191C246.27 199.901 242.924 193.618 239.839 187.188C230.553 163.951 222.927 140.126 223.533 114.735C223.827 87.483 227.174 60.3128 227.624 33.1427C227.624 20.7407 222.976 9.48099 215.351 0.815918H215.228ZM133.41 59.3174C143.997 71.7113 151.107 87.1403 153.21 104.136L159.755 159.047C151.369 163.209 145.028 170.846 142.623 180.09H133.353V59.3337L133.41 59.3174ZM297.046 59.3174V180.074H287.776C285.387 170.837 279.03 163.2 270.644 159.031L277.189 104.12C279.308 87.1403 286.418 71.6949 296.989 59.2929L297.046 59.3174ZM215.228 169.711C219.622 184.047 225.668 197.698 233.187 210.328C226.036 212.49 219.818 216.7 215.228 222.371C210.638 216.7 204.42 212.498 197.269 210.32C204.788 197.665 210.835 184.047 215.228 169.711V169.711ZM133.41 196.425H142.68C145.601 207.693 154.421 216.586 165.589 219.695L173.452 221.482C171.349 229.086 170.195 237.066 170.195 245.388H133.377V196.433L133.41 196.425ZM287.801 196.425H297.071V245.38H260.253C260.253 237.106 259.099 229.086 256.996 221.473L264.859 219.687C276.068 216.578 284.88 207.676 287.768 196.417L287.801 196.425ZM189.455 225.227C199.38 226.622 207.03 235.099 207.03 245.372H186.575C186.575 238.379 187.615 231.632 189.455 225.227ZM240.976 225.227C242.817 231.632 243.856 238.363 243.856 245.372H223.402C223.402 235.083 231.052 226.622 240.976 225.227ZM188.449 261.698H207.046V296.049C198.046 286.625 191.501 274.835 188.449 261.698ZM223.41 261.698H242.007C238.996 274.835 232.435 286.641 223.41 296.049V261.698Z" fill="#131EB7"/>
</g>
<defs>
<clipPath id="clip0_16_36">
<rect width="198" height="328" fill="white" transform="translate(113)"/>
</clipPath>
</defs>
</svg>
